# Blender v2.78 (sub 0) OBJ File: 'knife.blend'
# www.blender.org
o Cylinder
v -0.335446 -0.000000 -0.335446
v 0.335446 0.000000 -0.335446
v -0.335446 -0.065442 -0.329001
v 0.335446 -0.065442 -0.329001
v -0.335446 -0.128370 -0.309912
v 0.335446 -0.128370 -0.309912
v -0.335446 -0.186364 -0.278914
v 0.335446 -0.186364 -0.278914
v -0.335446 -0.237197 -0.237196
v 0.335447 -0.237196 -0.237196
v -0.335446 -0.278914 -0.186364
v 0.335447 -0.278914 -0.186364
v -0.335446 -0.309912 -0.128370
v 0.335447 -0.309912 -0.128370
v -0.335446 -0.329001 -0.065442
v 0.335447 -0.329001 -0.065442
v -0.335446 -0.335447 -0.000000
v 0.335447 -0.335446 -0.000000
v -0.335446 -0.329001 0.065442
v 0.335447 -0.329001 0.065442
v -0.335446 -0.309912 0.128370
v 0.335447 -0.309912 0.128370
v -0.335446 -0.278914 0.186364
v 0.335447 -0.278914 0.186364
v -0.335446 -0.237197 0.237196
v 0.335447 -0.237196 0.237196
v -0.335446 -0.186364 0.278914
v 0.335446 -0.186364 0.278914
v -0.335446 -0.128370 0.309912
v 0.335446 -0.128370 0.309912
v -0.335446 -0.065442 0.329001
v 0.335446 -0.065442 0.329001
v -0.335446 0.000000 0.335446
v 0.335446 0.000000 0.335446
v -0.335446 0.065442 0.329001
v 0.335446 0.065443 0.329001
v -0.335446 0.128370 0.309912
v 0.335446 0.128370 0.309912
v -0.335446 0.186364 0.278913
v 0.335446 0.186364 0.278913
v -0.335447 0.237197 0.237196
v 0.335446 0.237197 0.237196
v -0.335447 0.278914 0.186364
v 0.335446 0.278914 0.186364
v -0.335447 0.309912 0.128370
v 0.335446 0.309912 0.128370
v -0.335447 0.329001 0.065442
v 0.335446 0.329001 0.065442
v -0.335447 0.335446 -0.000000
v 0.335446 0.335447 -0.000000
v -0.335447 0.329001 -0.065443
v 0.335446 0.329001 -0.065443
v -0.335447 0.309912 -0.128370
v 0.335446 0.309912 -0.128370
v -0.335447 0.278913 -0.186364
v 0.335446 0.278913 -0.186364
v -0.335447 0.237196 -0.237197
v 0.335446 0.237196 -0.237197
v -0.335446 0.186364 -0.278914
v 0.335446 0.186364 -0.278914
v -0.335446 0.128369 -0.309912
v 0.335446 0.128369 -0.309912
v -0.335446 0.065442 -0.329001
v 0.335446 0.065442 -0.329001
v -1.264424 -0.000000 -0.335446
v -1.264424 -0.065443 -0.329001
v -1.264424 -0.128370 -0.309912
v -1.264424 -0.186364 -0.278914
v -1.264424 -0.237197 -0.237196
v -1.264424 -0.278914 -0.186364
v -1.264424 -0.309912 -0.128370
v -1.264424 -0.329001 -0.065442
v -1.264424 -0.335447 -0.000000
v -1.264424 -0.329001 0.065442
v -1.264424 -0.309912 0.128370
v -1.264424 -0.278914 0.186364
v -1.264424 -0.237197 0.237196
v -1.264424 -0.186364 0.278914
v -1.264424 -0.128370 0.309912
v -1.264424 -0.065442 0.329001
v -1.264424 -0.000000 0.335446
v -1.264424 0.065442 0.329001
v -1.264424 0.128370 0.309912
v -1.264424 0.186364 0.278913
v -1.264424 0.237196 0.237196
v -1.264424 0.278914 0.186364
v -1.264424 0.309912 0.128370
v -1.264424 0.329001 0.065442
v -1.264424 0.335446 -0.000000
v -1.264424 0.329001 -0.065443
v -1.264424 0.309912 -0.128370
v -1.264424 0.278913 -0.186364
v -1.264424 0.237196 -0.237197
v -1.264424 0.186364 -0.278914
v -1.264424 0.128369 -0.309912
v -1.264424 0.065442 -0.329001
v -3.452461 -0.000000 -0.335446
v -3.452461 -0.065443 -0.329001
v -3.452461 -0.065443 0.329001
v -3.452461 -0.000000 0.335446
v -3.452461 0.065442 0.329001
v -3.452461 0.065442 -0.329001
vn 0.0000 -0.0980 -0.9952
vn 0.0000 -0.2903 -0.9569
vn 0.0000 -0.4714 -0.8819
vn 0.0000 -0.6344 -0.7730
vn 0.0000 -0.7730 -0.6344
vn 0.0000 -0.8819 -0.4714
vn 0.0000 -0.9569 -0.2903
vn 0.0000 -0.9952 -0.0980
vn 0.0000 -0.9952 0.0980
vn 0.0000 -0.9569 0.2903
vn 0.0000 -0.8819 0.4714
vn 0.0000 -0.7730 0.6344
vn 0.0000 -0.6344 0.7730
vn 0.0000 -0.4714 0.8819
vn 0.0000 -0.2903 0.9569
vn 0.0000 -0.0980 0.9952
vn 0.0000 0.0980 0.9952
vn -0.0000 0.2903 0.9569
vn -0.0000 0.4714 0.8819
vn -0.0000 0.6344 0.7730
vn -0.0000 0.7730 0.6344
vn -0.0000 0.8819 0.4714
vn -0.0000 0.9569 0.2903
vn -0.0000 0.9952 0.0980
vn -0.0000 0.9952 -0.0980
vn -0.0000 0.9569 -0.2903
vn -0.0000 0.8819 -0.4714
vn -0.0000 0.7730 -0.6344
vn -0.0000 0.6344 -0.7730
vn 0.0000 0.4714 -0.8819
vn 1.0000 0.0000 -0.0000
vn 0.0000 0.2903 -0.9569
vn 0.0000 0.0980 -0.9952
vn -1.0000 0.0000 0.0000
vn 0.0000 -1.0000 0.0000
vn -0.0000 1.0000 -0.0000
s off
f 2//1 3//1 1//1
f 4//2 5//2 3//2
f 6//3 7//3 5//3
f 8//4 9//4 7//4
f 10//5 11//5 9//5
f 12//6 13//6 11//6
f 14//7 15//7 13//7
f 16//8 17//8 15//8
f 18//9 19//9 17//9
f 20//10 21//10 19//10
f 22//11 23//11 21//11
f 24//12 25//12 23//12
f 26//13 27//13 25//13
f 28//14 29//14 27//14
f 30//15 31//15 29//15
f 32//16 33//16 31//16
f 34//17 35//17 33//17
f 36//18 37//18 35//18
f 38//19 39//19 37//19
f 40//20 41//20 39//20
f 42//21 43//21 41//21
f 44//22 45//22 43//22
f 46//23 47//23 45//23
f 48//24 49//24 47//24
f 50//25 51//25 49//25
f 52//26 53//26 51//26
f 54//27 55//27 53//27
f 56//28 57//28 55//28
f 58//29 59//29 57//29
f 60//30 61//30 59//30
f 38//31 22//31 54//31
f 62//32 63//32 61//32
f 64//33 1//33 63//33
f 5//2 66//2 3//2
f 66//1 97//1 65//1
f 23//11 75//11 21//11
f 41//20 84//20 39//20
f 59//29 93//29 57//29
f 13//7 72//7 71//7
f 33//16 80//16 31//16
f 51//25 89//25 49//25
f 7//3 67//3 5//3
f 25//12 76//12 23//12
f 43//21 85//21 41//21
f 61//30 94//30 59//30
f 17//8 72//8 15//8
f 35//17 81//17 33//17
f 53//26 90//26 51//26
f 9//4 68//4 7//4
f 27//13 77//13 25//13
f 45//22 86//22 43//22
f 63//32 95//32 61//32
f 17//9 74//9 73//9
f 37//18 82//18 35//18
f 55//27 91//27 53//27
f 11//5 69//5 9//5
f 29//14 78//14 27//14
f 47//23 87//23 45//23
f 3//1 65//1 1//1
f 1//33 96//33 63//33
f 21//10 74//10 19//10
f 39//19 83//19 37//19
f 57//28 92//28 55//28
f 13//6 70//6 11//6
f 31//15 79//15 29//15
f 49//24 88//24 47//24
f 97//34 101//34 102//34
f 86//34 90//34 94//34
f 80//35 98//35 66//35
f 70//34 74//34 78//34
f 100//34 98//34 99//34
f 96//36 101//36 82//36
f 65//33 102//33 96//33
f 82//17 100//17 81//17
f 81//16 99//16 80//16
f 2//1 4//1 3//1
f 4//2 6//2 5//2
f 6//3 8//3 7//3
f 8//4 10//4 9//4
f 10//5 12//5 11//5
f 12//6 14//6 13//6
f 14//7 16//7 15//7
f 16//8 18//8 17//8
f 18//9 20//9 19//9
f 20//10 22//10 21//10
f 22//11 24//11 23//11
f 24//12 26//12 25//12
f 26//13 28//13 27//13
f 28//14 30//14 29//14
f 30//15 32//15 31//15
f 32//16 34//16 33//16
f 34//17 36//17 35//17
f 36//18 38//18 37//18
f 38//19 40//19 39//19
f 40//20 42//20 41//20
f 42//21 44//21 43//21
f 44//22 46//22 45//22
f 46//23 48//23 47//23
f 48//24 50//24 49//24
f 50//25 52//25 51//25
f 52//26 54//26 53//26
f 54//27 56//27 55//27
f 56//28 58//28 57//28
f 58//29 60//29 59//29
f 60//30 62//30 61//30
f 6//31 4//31 2//31
f 2//31 64//31 6//31
f 62//31 60//31 58//31
f 58//31 56//31 54//31
f 54//31 52//31 50//31
f 50//31 48//31 54//31
f 46//31 44//31 38//31
f 42//31 40//31 38//31
f 38//31 36//31 34//31
f 34//31 32//31 30//31
f 30//31 28//31 26//31
f 26//31 24//31 22//31
f 22//31 20//31 18//31
f 18//31 16//31 22//31
f 14//31 12//31 10//31
f 10//31 8//31 6//31
f 6//31 64//31 62//31
f 62//31 58//31 6//31
f 54//31 48//31 46//31
f 44//31 42//31 38//31
f 38//31 34//31 22//31
f 30//31 26//31 22//31
f 22//31 16//31 14//31
f 14//31 10//31 22//31
f 6//31 58//31 54//31
f 54//31 46//31 38//31
f 34//31 30//31 22//31
f 22//31 10//31 6//31
f 6//31 54//31 22//31
f 62//32 64//32 63//32
f 64//33 2//33 1//33
f 5//2 67//2 66//2
f 66//1 98//1 97//1
f 23//11 76//11 75//11
f 41//20 85//20 84//20
f 59//29 94//29 93//29
f 13//7 15//7 72//7
f 33//16 81//16 80//16
f 51//25 90//25 89//25
f 7//3 68//3 67//3
f 25//12 77//12 76//12
f 43//21 86//21 85//21
f 61//30 95//30 94//30
f 17//8 73//8 72//8
f 35//17 82//17 81//17
f 53//26 91//26 90//26
f 9//4 69//4 68//4
f 27//13 78//13 77//13
f 45//22 87//22 86//22
f 63//32 96//32 95//32
f 17//9 19//9 74//9
f 37//18 83//18 82//18
f 55//27 92//27 91//27
f 11//5 70//5 69//5
f 29//14 79//14 78//14
f 47//23 88//23 87//23
f 3//1 66//1 65//1
f 1//33 65//33 96//33
f 21//10 75//10 74//10
f 39//19 84//19 83//19
f 57//28 93//28 92//28
f 13//6 71//6 70//6
f 31//15 80//15 79//15
f 49//24 89//24 88//24
f 97//34 100//34 101//34
f 95//34 96//34 94//34
f 82//34 83//34 84//34
f 84//34 85//34 86//34
f 86//34 87//34 88//34
f 88//34 89//34 90//34
f 90//34 91//34 92//34
f 92//34 93//34 90//34
f 94//34 96//34 82//34
f 82//34 84//34 94//34
f 86//34 88//34 90//34
f 90//34 93//34 94//34
f 94//34 84//34 86//34
f 80//35 99//35 98//35
f 79//34 80//34 66//34
f 66//34 67//34 68//34
f 68//34 69//34 66//34
f 70//34 71//34 72//34
f 72//34 73//34 70//34
f 74//34 75//34 78//34
f 76//34 77//34 78//34
f 78//34 79//34 70//34
f 66//34 69//34 70//34
f 70//34 73//34 74//34
f 75//34 76//34 78//34
f 79//34 66//34 70//34
f 100//34 97//34 98//34
f 96//36 102//36 101//36
f 65//33 97//33 102//33
f 82//17 101//17 100//17
f 81//16 100//16 99//16
